<svg xmlns="http://www.w3.org/2000/svg" viewBox="0 0 213.16 79.25"><defs><style>.cls-1{fill:#003d6c;}</style></defs><g id="圖層_2" data-name="圖層 2"><g id="圖層_1-2" data-name="圖層 1"><path class="cls-1" d="M94,23.48l.15-2.64L87.57,19.1,89.86,16h6.33L94.75,26.42l10.51-10.06-6.08-5-3.34,3.34H90.71L95,6.24,85.53,5s-.82,9.52-2.84,15.1l-6.28-4.53a32.22,32.22,0,0,0-3.74,4.33H67.84V12.07C72.42,11.77,83,9.43,83,9.43l-5.76-6A82.48,82.48,0,0,1,67.39,10a62,62,0,0,0-7-2.44l0,13.3c.24,19.69-3,30.8-3,30.8s9.06-3.46,10-20.29l.4-10.11h2.49V48.2a3.49,3.49,0,0,0,7,0V21.29h4.88L81,24.2a23.81,23.81,0,0,0,5.2-3.71c.3,8.87-.3,15.55-1.7,20.08s-6.13,10.12-6.13,10.12c12.82-1.85,14.72-17.34,14.72-17.34.17,14.62,6.86,17.93,6.86,17.93L105,42.46S96,40.32,94,23.48Z"/><path class="cls-1" d="M156.28,29.33,153.88,32l-1-.05v-1l1.91-2.63-4.17-3a3.71,3.71,0,0,0,1.41-2.9V16.57l1.7-1.51-6.48-4.14-2.94,2.55h-5.38V10.18h20.3l-7.15-6.33-4.18,5h-9v-5a3.79,3.79,0,1,0-7.57,0v5H113.18a.67.67,0,0,0-.67.67.68.68,0,0,0,.67.68h18.19v3.29h-5.73l-7.23-2.05-.2,11h0a3.71,3.71,0,1,0,7.42,0h5.73v4.09h-15.5a.67.67,0,0,0-.67.67.69.69,0,0,0,.67.68h15.5V32H112.83a.7.7,0,0,0,0,1.4h18.54v4.83H115.32a.7.7,0,0,0,0,1.39h16.05l0,2.7H123s7.79,9.36,8.34,9.41c3.26,0,4.88-.65,6-1.74a6.43,6.43,0,0,0,1.59-4.47v-5.9h6v1.64h0a4,4,0,0,0,7.91.05h0V33.35l7.23,0C160.12,33.06,156.28,29.33,156.28,29.33Zm-24.91-8.24h-5.73V14.86h5.73Zm13.3,5.43h-5.73V22.43h5.68a3.69,3.69,0,0,0,1.32,2.82Zm.3,1.35V32h-6V27.87Zm-.35-13v6.23h-5.68V14.86Zm-5.68,23.32V33.35h6v4.83Z"/><path class="cls-1" d="M194.34,35.49h18.43l-6.37-5.28-3.14,3.88h-9.71V29.66h15.34l-6.43-5.28-3.08,3.88h-5.83V23.58h17.56L205,18.35l-3.09,3.89h-6.78l8.92-4.39-5.18-2.44h13.78l-5.56-4.68a16.78,16.78,0,0,0-2.59,3.33H200C202.61,12.67,210.59,8,210.59,8L201.82,4.8l-4,9.26h0V7.21a3.66,3.66,0,1,0-7.32,0v6.85h-.74V7.21a3.66,3.66,0,1,0-7.32,0V14l-4.09-9.2L169.59,8l10.71,6.08H168.18a.67.67,0,1,0,0,1.34h8.22c1.47.83,1.48,2,1.76,4.31a3.84,3.84,0,0,0,1.42,2.52H169.18a.67.67,0,1,0,0,1.34h16.39v4.68h-13.9a.7.7,0,0,0,0,1.4h13.9v4.43H167.79a.7.7,0,1,0,0,1.4h12C178.4,42,167,50.88,167,50.88s13.13-1.79,18.57-10.16v6.9h0s0,.06,0,.08a4,4,0,0,0,8,0s0-.05,0-.08h0V36.49a21.86,21.86,0,0,0,14.78,14.84L213.16,43S202.41,41.16,194.34,35.49Zm-2.19-13.25H184a4.12,4.12,0,0,0,1.7-3.23,3.17,3.17,0,0,0-1.35-2.7l-1.2-.9H195Z"/><path class="cls-1" d="M15.16,8.33C13.72,6.89,4.66,3,4.66,3S8.52,12.1,10,13.53a3.68,3.68,0,0,0,5.21-5.2Z"/><path class="cls-1" d="M38,11.42a3.68,3.68,0,0,0-2.23-4.7c-1.91-.69-13.64,0-13.64,0S31.35,13,33.26,13.64A3.68,3.68,0,0,0,38,11.42Z"/><path class="cls-1" d="M10.49,25.1a3.68,3.68,0,0,0,0-5.21C9.06,18.46,0,14.6,0,14.6s3.85,9.06,5.29,10.5A3.69,3.69,0,0,0,10.49,25.1Z"/><path class="cls-1" d="M3.83,46.52a4.28,4.28,0,0,0,8.47,1.2c.33-2.34,0-21.25,0-21.25S4.16,44.18,3.83,46.52Z"/><path class="cls-1" d="M22.1,21.19l-4.59,4.59H15a.67.67,0,1,0,0,1.34h4.22c-.73,9.55-5.86,20.6-5.86,20.6,13-8.79,13.36-21.94,13.36-21.94Z"/><path class="cls-1" d="M37.45,27.56c3-.89,11.36-5.13,11.36-5.13L41.69,16.9s-3.39,7.33-4.93,9.27a37.53,37.53,0,0,1-1.6-4.59l1.56-3.84-7.59-3.88a22.37,22.37,0,0,0-2.54,1.89H17.65a.69.69,0,0,0-.68.68.68.68,0,0,0,.68.67h9.59l-.06,25.77H19.91c0,.25,7.26,8.24,7.28,8.27h0a5.67,5.67,0,0,0,2.4.54,5.57,5.57,0,0,0,5.57-5.57h0V27.51c1,16.77,10.22,19.93,10.22,19.93l5.12-8.87C40.61,33.44,37.45,27.56,37.45,27.56Z"/><path class="cls-1" d="M8.58,72.74v6.38H4.73V72.74L0,63.45H4.2l2.47,5.64,2.44-5.64h4.2Z"/><path class="cls-1" d="M30.71,77.49a5.71,5.71,0,0,1-4.37,1.76A5.71,5.71,0,0,1,22,77.49c-1.65-1.65-1.59-3.85-1.59-6.2s-.06-4.56,1.59-6.21a5.75,5.75,0,0,1,4.38-1.76,5.74,5.74,0,0,1,4.37,1.76c1.65,1.65,1.59,3.85,1.59,6.21S32.36,75.84,30.71,77.49Zm-2.83-10a1.93,1.93,0,0,0-1.54-.69,1.9,1.9,0,0,0-1.54.69c-.36.46-.58,1-.58,3.85s.22,3.36.58,3.82a1.91,1.91,0,0,0,1.54.71,1.94,1.94,0,0,0,1.54-.71c.35-.46.57-1,.57-3.82S28.23,67.9,27.88,67.44Z"/><path class="cls-1" d="M50,79.12l-5-7.88v7.88H41.16V63.45h3.37l5,7.88V63.45H53.4V79.12Z"/><path class="cls-1" d="M72.65,77.45a5.88,5.88,0,0,1-4.45,1.8,5.8,5.8,0,0,1-4.35-1.76c-1.66-1.65-1.59-3.85-1.59-6.2s-.07-4.56,1.59-6.21a5.73,5.73,0,0,1,4.35-1.76A5.89,5.89,0,0,1,73,65.26l-2.62,2.62a2.79,2.79,0,0,0-2.22-1.13,1.88,1.88,0,0,0-1.52.69c-.35.46-.57,1-.57,3.85s.22,3.41.57,3.87a1.9,1.9,0,0,0,1.52.66,1.93,1.93,0,0,0,1.59-.62,2.65,2.65,0,0,0,.57-1.71v-.18H68.2V70.1h6v2.11C74.19,74.74,73.83,76.24,72.65,77.45Z"/><path class="cls-1" d="M102,79.12,99.37,74.3,96.8,79.12H92.4l4.88-8-4.57-7.64h4.38l2.28,4.43,2.29-4.43H106l-4.57,7.64,4.88,8Z"/><path class="cls-1" d="M114.14,79.12V63.45H118V79.12Z"/><path class="cls-1" d="M136.22,79.12l-5-7.88v7.88h-3.85V63.45h3.36l5,7.88V63.45h3.85V79.12Z"/><path class="cls-1" d="M160.05,79.12V63.45h3.85V79.12Z"/><path class="cls-1" d="M179.56,79.12V72a1.46,1.46,0,1,0-2.9,0v7.09h-3.61V67.28h3.52v1a4,4,0,0,1,2.75-1.1,3.63,3.63,0,0,1,2.66,1,4.32,4.32,0,0,1,1.19,3.39v7.57Z"/><path class="cls-1" d="M196.79,79.25c-2,0-5.32-.88-5.32-6s3.27-6,5.32-6a5.24,5.24,0,0,1,3.89,1.52l-2.44,2.44a1.92,1.92,0,0,0-1.45-.7,1.46,1.46,0,0,0-1.12.46,3.36,3.36,0,0,0-.6,2.33,3.36,3.36,0,0,0,.6,2.33,1.46,1.46,0,0,0,1.12.46,1.92,1.92,0,0,0,1.45-.7l2.44,2.44A5.24,5.24,0,0,1,196.79,79.25Z"/><path class="cls-1" d="M210.67,79.18A2.31,2.31,0,1,1,213,76.87,2.31,2.31,0,0,1,210.67,79.18Z"/></g></g></svg>